<svg width="19" height="24" viewBox="0 0 19 24" fill="none" xmlns="http://www.w3.org/2000/svg">
<g clip-path="url(#clip0_48_573)">
<path d="M0 12.5701H2.40173V21.4145H8.29557V14.5223H10.7329V21.4816H18.9572V24.0075H0V12.5775V12.5701Z" fill="#FFF0E6" fill-opacity="0.9"/>
<path d="M0 9.06791C0.242311 8.15888 0.42048 7.22749 0.734058 6.35571C2.25206 2.10858 6.45686 -0.506755 10.7543 0.0818823C15.0945 0.67797 18.551 4.35136 18.9929 8.85183C19.0214 9.12007 18.9929 9.39576 18.9929 9.73851H16.6695C16.5413 7.54044 15.7359 5.68511 14.1253 4.27685C12.8211 3.13683 11.3173 2.54075 9.59977 2.53329C5.77982 2.53329 3.36384 4.91765 2.33758 9.79812H0C0 9.55223 0 9.30635 0 9.06046V9.06791Z" fill="#FFF0E6" fill-opacity="0.9"/>
<path d="M18.9428 18.747H16.6836V12.6594H18.9428V18.747Z" fill="#FFF0E6" fill-opacity="0.9"/>
<path d="M10.9401 10.2454C10.9187 11.0874 10.3485 11.6537 9.52896 11.6388C8.688 11.6314 8.10361 10.9906 8.13924 10.1113C8.16775 9.28425 8.75927 8.70307 9.5646 8.71052C10.4127 8.71797 10.9614 9.32896 10.9401 10.238V10.2454Z" fill="#FFF0E6" fill-opacity="0.9"/>
</g>
<defs>
<clipPath id="clip0_48_573">
<rect width="19" height="24" fill="white"/>
</clipPath>
</defs>
</svg>
