<svg width="19" height="19" viewBox="0 0 19 19" fill="none" xmlns="http://www.w3.org/2000/svg">
<g id="Layer_1" clip-path="url(#clip0_61_798)">
<rect width="19" height="19" transform="translate(19 19) rotate(-180)" fill="white"/>
<path id="Vector" d="M13.9346 6.115C13.9346 7.62388 13.9246 9.14269 13.9346 10.6516C13.9346 11.0387 13.8055 11.2968 13.5075 11.5351C12.7825 12.091 12.0971 12.7064 11.5112 13.4112C11.0245 13.9969 10.6669 14.6422 10.4087 15.3569C10.071 16.2503 9.75318 17.1537 9.3559 18.0272C8.95862 18.9206 8.03494 19.2383 7.16092 18.8512C6.35642 18.4938 6.23724 17.7592 6.17764 17.0147C6.06839 15.5753 6.32662 14.1657 6.62459 12.766C6.70404 12.3788 6.59479 12.3292 6.24717 12.3292C5.06525 12.3491 3.88334 12.3292 2.71136 12.3292C1.15203 12.3491 0.158825 10.7905 0.834204 9.4802C0.91366 9.32137 0.903728 9.21218 0.76468 9.08313C0.615699 8.94415 0.466719 8.78532 0.347534 8.61656C-0.198729 7.84227 -0.129205 7.04812 0.585902 6.23412C0.824271 5.96609 0.893796 5.75763 0.754748 5.41019C0.407126 4.53663 0.685225 3.80204 1.40033 3.23621C1.61884 3.05753 1.65857 2.91855 1.54931 2.65052C1.08251 1.39974 1.99625 0.0298337 3.31722 0.0298338C5.40295 0.029834 7.47874 -0.0595079 9.56447 0.0993229C10.945 0.198591 12.2759 0.516252 13.587 0.923254C13.875 1.0126 13.9246 1.19128 13.9246 1.4593C13.9246 3.01782 13.9246 4.56641 13.9246 6.12492L13.9346 6.115Z" fill="#E54747"/>
<path id="Vector_2" d="M15.0667 5.96597C15.0667 4.52658 15.0667 3.08719 15.0667 1.63786C15.0667 1.34999 15.1561 1.25072 15.4442 1.26064C16.3877 1.2805 17.3313 1.26064 18.2748 1.26064C18.8012 1.26064 19.0098 1.46911 19.0098 1.99523C18.9998 4.6457 18.9998 7.27632 18.9998 9.90694C18.9998 10.4728 18.8111 10.6614 18.2549 10.6614C17.3114 10.6614 16.3678 10.6614 15.4243 10.6614C15.1263 10.6614 15.0568 10.5621 15.0568 10.2842C15.0667 8.84476 15.0568 7.40537 15.0568 5.95605L15.0667 5.96597Z" fill="#E54747"/>
</g>
<defs>
<clipPath id="clip0_61_798">
<rect width="19" height="19" fill="white" transform="translate(19 19) rotate(-180)"/>
</clipPath>
</defs>
</svg>
