<svg width="19" height="19" viewBox="0 0 19 19" fill="none" xmlns="http://www.w3.org/2000/svg">
<g clip-path="url(#clip0_61_777)">
<path d="M5.06543 12.885C5.06543 11.3761 5.07536 9.85731 5.06543 8.34843C5.06543 7.96128 5.19455 7.70318 5.49251 7.46494C6.21755 6.90903 6.90286 6.29357 7.48885 5.58876C7.97552 5.00308 8.33307 4.35783 8.59131 3.6431C8.92899 2.74968 9.24682 1.84634 9.6441 0.972775C10.0414 0.0793579 10.9651 -0.238302 11.8391 0.148846C12.6436 0.506213 12.7628 1.2408 12.8224 1.98531C12.9316 3.42471 12.6734 4.83432 12.3754 6.23401C12.296 6.62116 12.4052 6.67079 12.7528 6.67079C13.9347 6.65094 15.1167 6.67079 16.2886 6.67079C17.848 6.65094 18.8412 8.20945 18.1658 9.5198C18.0863 9.67863 18.0963 9.78782 18.2353 9.91687C18.3843 10.0558 18.5333 10.2147 18.6525 10.3834C19.1987 11.1577 19.1292 11.9519 18.4141 12.7659C18.1757 13.0339 18.1062 13.2424 18.2453 13.5898C18.5929 14.4634 18.3148 15.198 17.5997 15.7638C17.3812 15.9425 17.3414 16.0814 17.4507 16.3495C17.9175 17.6003 17.0037 18.9702 15.6828 18.9702C13.5971 18.9702 11.5213 19.0595 9.43553 18.9007C8.05498 18.8014 6.72408 18.4837 5.41305 18.0767C5.12502 17.9874 5.07536 17.8087 5.07536 17.5407C5.07536 15.9822 5.07536 14.4336 5.07536 12.8751L5.06543 12.885Z" fill="#6A996C"/>
<path d="M3.93326 13.034C3.93326 14.4734 3.93326 15.9128 3.93326 17.3621C3.93326 17.65 3.84387 17.7493 3.55584 17.7394C2.61229 17.7195 1.66875 17.7394 0.725206 17.7394C0.198807 17.7394 -0.00976562 17.5309 -0.00976562 17.0048C0.000166419 14.3543 0.000166419 11.7237 0.000166419 9.09306C0.000166419 8.52723 0.188875 8.33862 0.74507 8.33862C1.68861 8.33862 2.63216 8.33862 3.5757 8.33862C3.87366 8.33862 3.94319 8.43789 3.94319 8.71584C3.93326 10.1552 3.94319 11.5946 3.94319 13.044L3.93326 13.034Z" fill="#6A996C"/>
</g>
<defs>
<clipPath id="clip0_61_777">
<rect width="19" height="19" fill="white"/>
</clipPath>
</defs>
</svg>
