<svg width="17" height="21" viewBox="0 0 17 21" fill="none" xmlns="http://www.w3.org/2000/svg">
<path d="M0 11H2.15536V18.7296H7.4375V12.7028H9.62322V18.7915H17V21H0V11Z" fill="#663399"/>
<path d="M0 7.3935C0.212009 6.65223 0.37354 5.8917 0.656219 5.17931C2.01914 1.72324 5.77473 -0.413939 9.62118 0.0674074C13.508 0.548754 16.5973 3.55236 16.991 7.22022C17.0112 7.44164 16.991 7.66306 16.991 7.94224H14.9113C14.7902 6.15163 14.0734 4.63057 12.6297 3.48497C11.4586 2.55116 10.1159 2.06981 8.58133 2.06981C5.16899 2.06981 2.99842 4.01445 2.08981 8H0C0 7.79783 0 7.59567 0 7.3935Z" fill="#663399"/>
</svg>
