<svg width="126" height="54" viewBox="0 0 126 54" fill="none" xmlns="http://www.w3.org/2000/svg">
<g clip-path="url(#clip0_48_183)">
<path d="M24.9919 3.07725C20.9172 -1.02575 14.3071 -1.02575 10.2323 3.07725C6.15758 7.18025 6.15758 13.8362 10.2323 17.9392C14.3071 22.0422 20.9172 22.0422 24.9919 17.9392C29.0667 13.8362 29.0667 7.18025 24.9919 3.07725ZM20.8719 13.7678C19.0836 15.5686 16.1633 15.5686 14.375 13.7678C12.5866 11.9671 12.5866 9.02659 14.375 7.22583C16.1633 5.42507 19.0836 5.42507 20.8719 7.22583C22.6603 9.02659 22.6603 11.9671 20.8719 13.7678Z" fill="#CC6666"/>
<path d="M17.9513 54C16.3214 54 14.6916 53.4757 13.3107 52.3816L13.0164 52.1309L4.36888 43.4234C1.08645 40.1182 -0.452894 36.0152 0.113042 32.1629C0.769528 27.9232 3.84822 24.7548 7.99087 24.0709C8.35307 24.0253 8.69263 23.9797 9.05483 23.957C11.2054 23.843 13.4012 24.3673 15.5744 25.5298C17.0911 26.3276 18.8795 26.3276 20.3962 25.5298C26.3725 22.3385 31.5791 24.3673 34.0692 27.7636C36.7404 31.4107 37.1253 37.8616 31.6017 43.4006L23.3617 51.6978C21.845 53.2022 19.8982 53.9772 17.9287 53.9772L17.9513 54ZM17.3854 47.3896C17.8382 47.6632 18.4041 47.5948 18.7889 47.2301L27.0969 38.8645C29.9492 36.0152 30.0624 33.1659 28.9305 31.6387C27.8439 30.1798 25.7386 30.0203 23.407 31.2512C20.0114 33.0519 15.9593 33.0519 12.5636 31.2512C11.4544 30.6585 10.3452 30.3622 9.39439 30.4306C9.25857 30.4306 9.12274 30.4306 8.98692 30.4762C7.60604 30.7041 6.65526 31.7071 6.42889 33.1659C6.15724 34.9667 7.0401 37.041 8.87373 38.8873L17.3401 47.4124L17.3854 47.3896Z" fill="#FFF0E6"/>
<path d="M50.3232 28.6526H56.3448V42.4888H63.0681V46.5462H50.3459V28.6754L50.3232 28.6526Z" fill="#FFF0E6"/>
<path d="M65.4224 28.6526H71.3987V46.5234H65.4224V28.6526Z" fill="#FFF0E6"/>
<path d="M73.6846 28.6526H79.774L82.9206 42.3064H82.9659L86.0899 28.6526H92.1794L87.018 46.5234H78.8685L73.7072 28.6526H73.6846Z" fill="#FFF0E6"/>
<path d="M93.6963 28.6526H107.754V32.7328H99.7178V35.6049H107.075V39.4799H99.7178V42.4432H107.754V46.5234H93.6963V28.6526Z" fill="#FFF0E6"/>
<path d="M114.84 32.7328H109.679V28.6526H125.978V32.7328H120.839V46.5234H114.817V32.7328H114.84Z" fill="#FFF0E6"/>
<path d="M54.4432 5.88097H48.5122V3.82947H63.2945V5.88097H57.3861V23.3187H54.4432V5.88097Z" fill="#FFF0E6"/>
<path d="M65.5352 3.82947H78.3706V5.88097H68.478V12.3774H77.7594V14.3149H68.478V21.2444H78.3706V23.2959H65.5352V3.82947Z" fill="#FFF0E6"/>
<path d="M81.1104 3.82947H85.8868L90.9576 20.1503H91.0255L96.0963 3.82947H100.873V23.3187H97.9979V5.88097H97.93L92.746 22.2474H89.2598L84.0759 5.88097H84.0079V23.3187H81.133V3.82947H81.1104Z" fill="#FFF0E6"/>
<path d="M109.814 3.78394H114.002L120.477 23.3188H117.443L115.745 17.9165H108.049L106.351 23.3188H103.317L109.792 3.78394H109.814ZM115.247 15.9106L111.92 5.53911H111.897L108.569 15.9106H115.247Z" fill="#FFF0E6"/>
<path d="M125.321 6.63318V9.32292H122.582V6.63318H125.321ZM125.321 20.629V23.3187H122.582V20.629H125.321Z" fill="#FFF0E6"/>
</g>
<defs>
<clipPath id="clip0_48_183">
<rect width="126" height="54" fill="white"/>
</clipPath>
</defs>
</svg>
